<svg xmlns="http://www.w3.org/2000/svg" width="54" height="63" viewBox="0 0 54 63">
  <path id="Icon_metro-file-pdf" data-name="Icon metro-file-pdf" d="M54.18,15.563a8.18,8.18,0,0,1,1.688,2.672,8.113,8.113,0,0,1,.7,3.094v40.5A3.361,3.361,0,0,1,53.2,65.2H5.946a3.255,3.255,0,0,1-2.391-.984,3.255,3.255,0,0,1-.984-2.391V5.578a3.255,3.255,0,0,1,.984-2.391A3.255,3.255,0,0,1,5.946,2.2h31.5a8.116,8.116,0,0,1,3.094.7,8.18,8.18,0,0,1,2.672,1.688ZM38.571,6.985V20.2H51.789a3.841,3.841,0,0,0-.773-1.441l-11-11a3.84,3.84,0,0,0-1.441-.773ZM52.071,60.7v-36H37.446a3.361,3.361,0,0,1-3.375-3.375V6.7h-27v54h45ZM34,39.856a26.749,26.749,0,0,0,2.953,1.969,34.887,34.887,0,0,1,4.113-.246q5.168,0,6.223,1.723a1.7,1.7,0,0,1,.07,1.828.1.1,0,0,1-.035.07l-.07.07V45.3q-.211,1.336-2.5,1.336a14.5,14.5,0,0,1-4.043-.7,25.635,25.635,0,0,1-4.57-1.863,63.3,63.3,0,0,0-13.781,2.918Q16.985,56.2,13.856,56.2a2.045,2.045,0,0,1-.984-.246l-.844-.422q-.035-.035-.211-.176a1.453,1.453,0,0,1-.211-1.266,7.635,7.635,0,0,1,1.969-3.217,16.99,16.99,0,0,1,4.641-3.393.513.513,0,0,1,.809.211.2.2,0,0,1,.07.141q1.828-2.988,3.762-6.926A53.658,53.658,0,0,0,26.512,31.7a28.419,28.419,0,0,1-1.072-5.607,13.669,13.669,0,0,1,.228-4.482q.387-1.406,1.477-1.406h.773a1.482,1.482,0,0,1,1.23.527,2.808,2.808,0,0,1,.316,2.391.763.763,0,0,1-.141.281.915.915,0,0,1,.035.281v1.055a46.037,46.037,0,0,1-.492,6.75Q30.8,37.254,34,39.856ZM13.75,54.3q1.828-.844,4.816-5.555A20.041,20.041,0,0,0,15.491,51.7,11.685,11.685,0,0,0,13.75,54.3ZM27.743,21.961a10.454,10.454,0,0,0-.07,4.641q.035-.246.246-1.547,0-.105.246-1.512a.791.791,0,0,1,.141-.281.1.1,0,0,1-.035-.07.071.071,0,0,0-.018-.053.071.071,0,0,1-.018-.053,2.023,2.023,0,0,0-.457-1.266.1.1,0,0,1-.035.07v.07ZM23.383,45.2a51.567,51.567,0,0,1,9.984-2.848,5.3,5.3,0,0,1-.457-.334,6.3,6.3,0,0,1-.563-.475,18.622,18.622,0,0,1-4.465-6.187,46.98,46.98,0,0,1-2.918,6.926Q23.91,44.25,23.383,45.2Zm22.711-.563q-.844-.844-4.922-.844a13.3,13.3,0,0,0,4.359.984,3.41,3.41,0,0,0,.633-.035q0-.035-.07-.105Z" transform="translate(-2.571 -2.204)" fill="#e0750b"/>
</svg>
