<svg xmlns="http://www.w3.org/2000/svg" width="61.799" height="60.671" viewBox="0 0 61.799 60.671">
  <path id="Icon_simple-microsoftexcel" data-name="Icon simple-microsoftexcel" d="M60.648,7.752h-20.7v3.832h6.1v6.061h-6.1v1.931h6.1v6.069h-6.1v1.985h6.1v5.74h-6.1v2.3h6.1v5.752h-6.1v2.3h6.1v5.786h-6.1v4.22h20.7c.327-.1.6-.484.819-1.154a5.646,5.646,0,0,0,.332-1.638V8.453c0-.33-.113-.528-.332-.6A2.833,2.833,0,0,0,60.648,7.752ZM57.963,49.5H48.031V43.722h9.932V49.5Zm0-8.08H48.031V35.667h9.932Zm0-8.055H48.031V27.654h9.932v5.714Zm0-7.725H48.031V19.582h9.932v6.061Zm0-8.031H48.031V11.586h9.932v6.025ZM0,6.8v47.9L36.462,61V.328L0,6.817ZM21.612,43.029q-.209-.564-1.952-4.8C18.5,35.41,17.806,33.767,17.6,33.3h-.064l-3.911,9.309L8.4,42.254l6.2-11.587L8.922,19.079l5.33-.281,3.523,9.066h.07l3.978-9.478,5.508-.348-6.558,12.54,6.759,12.792-5.92-.348Z" transform="translate(0 -0.329)" fill="#e0750b"/>
</svg>
