<svg xmlns="http://www.w3.org/2000/svg" width="63.361" height="60" viewBox="0 0 63.361 60">
  <path id="Icon_simple-microsoftword" data-name="Icon simple-microsoftword" d="M63.361,9.129V52.816a1.183,1.183,0,0,1-.393.913,1.341,1.341,0,0,1-.95.364H39.42V48.035H57.854V45.276H39.4V41.9H57.838V39.143H39.417V35.737H57.846V33.012H39.417V29.6H57.846V26.842H39.417V23.465H57.846V20.712H39.417V17.266H57.846V14.642H39.417V7.8h22.6a1.191,1.191,0,0,1,.945.393,1.225,1.225,0,0,1,.393.94ZM36.038.966v59.99L0,54.72V7.371L36.038.956ZM30.6,18.676l-4.512.277L23.194,36.867h-.066c-.143-.847-.673-3.815-1.624-8.889l-1.687-8.615-4.235.211-1.695,8.4c-.99,4.895-1.542,7.744-1.687,8.544h-.04L9.586,20.02l-3.881.206L9.864,41.038l4.314.277,1.624-8.1c.95-4.752,1.5-7.514,1.624-8.269h.119c.161.805.676,3.628,1.624,8.475l1.624,8.338,4.673.277,5.227-23.365H30.6Z" transform="translate(0 -0.956)" fill="#e0750b"/>
</svg>
